<?xml version="1.0" encoding="utf-8"?>
<!-- Generator: Adobe Illustrator 26.0.3, SVG Export Plug-In . SVG Version: 6.00 Build 0)  -->
<svg version="1.1" id="Layer_1" xmlns="http://www.w3.org/2000/svg" xmlns:xlink="http://www.w3.org/1999/xlink" x="0px" y="0px"
	 viewBox="0 0 227 70.4" style="enable-background:new 0 0 227 70.4;" xml:space="preserve">
<style type="text/css">
	.st0{fill:#FFFFFF;}
</style>
<path class="st0" d="M68.9,12.3H12.6c-0.8,0-1.4,0.6-1.4,1.4v30.2c0,0.8,0.6,1.4,1.4,1.4h23.6c-0.2,9.7-4,10.6-4,10.6h17.2
	c0,0-3.9-0.8-4-10.6h23.7c0.8,0,1.4-0.6,1.4-1.4V13.7C70.4,12.9,69.7,12.3,68.9,12.3z M68.4,42.8c0,0.3-0.3,0.6-0.6,0.6h-54
	c-0.3,0-0.6-0.3-0.6-0.6v-28c0-0.3,0.3-0.6,0.6-0.6h54c0.3,0,0.6,0.3,0.6,0.6V42.8z"/>
<path class="st0" d="M118.5,12.3c1,0,1.7,0.8,1.7,1.7v40.2c0,1-0.8,1.7-1.7,1.7H98c-1,0-1.7-0.8-1.7-1.7V14c0-1,0.8-1.7,1.7-1.7
	H118.5z M99.8,16.1c-0.8,0-1.4,0.6-1.4,1.4v34c0,0.8,0.6,1.4,1.4,1.4h16.8c0.8,0,1.4-0.6,1.4-1.4v-34c0-0.8-0.6-1.4-1.4-1.4H99.8z
	 M108.2,15.2c0.6,0,1.1-0.5,1.1-1.1c0-0.6-0.5-1.1-1.1-1.1c-0.6,0-1.1,0.5-1.1,1.1C107.2,14.7,107.7,15.2,108.2,15.2"/>
<path class="st0" d="M191.6,53.1l-18.5,5.5c0,0-7,3.1-9.3-2.3c-2.3-5.4-1.6-11.7-1-14.2c0.6-2.5,2.2-6.7,6.1-7.7
	c4-1,37.5-8.2,37.5-8.2s4.6-1.5,5.7,1.8c1.1,3.3,1.2,6.6,0.6,9.4c-0.6,2.8-2.2,6.5-2.9,7.6c-0.7,1.1-2.4,2.8-5.2,3.7
	C201.9,49.7,191.6,53.1,191.6,53.1 M165.5,45.7c0,0,1.6-5.9,4.6-6.6c3-0.7,38-8.5,38-8.5s1.7-0.3,3,0.8c-0.4-0.8-0.1-3.4-4.3-2.6
	c-4.2,0.8-36.1,7.7-36.1,7.7S165.5,38.2,165.5,45.7"/>
<path class="st0" d="M206.4,24.1l-40,8.7c0,0-4.8,1.8-6.3,9.5c-1.4,7.7,1.1,12.3,1.1,12.3l-9.1-8.8c0,0-4.1-4-2.8-11.9
	c1.3-7.9,6-7.2,8.9-6.9c2.9,0.4,13.5,1,21-0.6c7.6-1.6,11.5-2.6,13.6-4.2c2-1.6,2.5-3.1,5.1-1.9C200.4,21.5,206.4,24.1,206.4,24.1
	 M162.7,33.5c0,0-7.2-3.7-8.2-4.2c-1-0.5-2.2,0.8-3.1,2.4c-1,1.6-0.5,3.7-0.5,3.7s6.1,4.4,8.2,5.8C159.1,38.3,162.7,33.5,162.7,33.5
	"/>
<path class="st0" d="M149.4,29.2c0,0-3.1,5.6-1.6,10.1c-3.2-3.2-5.8-6.4-5.8-6.4s-1.4-2.2-1.3-5.7c0.1-3.5,0.8-5.3,1.3-6.4
	C142.4,21.8,141.1,25.4,149.4,29.2"/>
<path class="st0" d="M147.3,22.4c-1.1,0.7-3,2.9-3.5,1.2c-0.5-1.7-0.8-4.3,0.5-5.2c1.3-0.8,7.5-3.1,12.4-3.7c5-0.6,9.3-1.6,12.1-1.9
	c2.8-0.4,6.7-1.2,11.7,0.5c4.9,1.7,13.5,5.7,13.5,5.7s-0.8,1-2.2,1.9c-1.3,1-3.5,1.9-3.5,1.9s-1,0.6-1.9,0c-0.8-0.6-4.3-2.7-6.4-3.6
	c-2-0.9-4.6-1.6-6.3-1.6s-3.7,0.1-6.5,0.6c-2.8,0.6-7.3,1.3-10.5,2.1C153.6,21.2,147.3,22.4,147.3,22.4"/>
</svg>
