<?xml version="1.0" encoding="utf-8"?>
<!-- Generator: Adobe Illustrator 26.0.3, SVG Export Plug-In . SVG Version: 6.00 Build 0)  -->
<svg version="1.1" id="Layer_1" xmlns="http://www.w3.org/2000/svg" xmlns:xlink="http://www.w3.org/1999/xlink" x="0px" y="0px"
	 viewBox="0 0 165.3 43.7" style="enable-background:new 0 0 165.3 43.7;" xml:space="preserve">
<style type="text/css">
	.st0{fill:none;stroke:#CFCFCF;stroke-width:3;stroke-miterlimit:10;}
	.st1{fill:#CFCFCF;}
</style>
<path class="st0" d="M142.4,1.5c11.2-0.2,20.6,8.7,20.8,19.9c0.2,11.2-8.7,20.6-19.9,20.8c-0.3,0-0.6,0-0.9,0"/>
<circle class="st1" cx="21.9" cy="21.9" r="21.9"/>
<g>
	<polygon points="29.2,31.6 17.3,10.7 14,16.6 25.9,37.4 	"/>
	<polygon points="6.1,17.4 18,38.2 24.4,38.2 12.5,17.4 	"/>
	<polygon points="15.9,9.9 9.5,9.9 6.1,15.7 12.5,15.7 	"/>
	<polygon points="34.4,10.7 26.9,24 30.2,29.9 37.8,16.6 	"/>
	<polygon points="22.6,16.5 25.9,22.3 32.9,9.9 26.4,9.9 	"/>
</g>
<g>
	<path class="st1" d="M58.9,20.9L58.9,20.9c0-5,3.9-9,8.8-9.1c0.1,0,0.2,0,0.3,0c2.5-0.1,4.9,0.7,6.8,2.4l-2.4,2.9
		c-1.2-1.2-2.9-1.8-4.5-1.8c-2.9,0.1-5.1,2.5-5,5.4l0,0c-0.2,2.9,2,5.3,4.9,5.5c0.1,0,0.2,0,0.4,0c1.3,0.1,2.5-0.3,3.6-1v-2.5h-3.8
		v-3.3h7.6v7.6c-2.1,1.8-4.7,2.8-7.4,2.8C62.6,29.9,58.9,26.1,58.9,20.9z"/>
	<path class="st1" d="M77.2,25.8L77.2,25.8c0-2.9,2.2-4.2,5.4-4.2c1.1,0,2.2,0.2,3.3,0.6v-0.2c0-1.6-1-2.4-2.9-2.4
		c-1.3,0-2.5,0.3-3.7,0.7l-0.9-2.9c1.6-0.7,3.4-1.1,5.2-1.1c1.6-0.1,3.2,0.4,4.5,1.4c1,1.2,1.6,2.7,1.4,4.2v7.8h-3.6v-1.4
		c-1,1.1-2.5,1.8-4,1.7C79.2,29.8,77.2,28.4,77.2,25.8z M85.9,24.9v-0.7c-0.8-0.3-1.6-0.5-2.4-0.5c-1.6,0-2.6,0.7-2.6,1.8l0,0
		c0,1,0.8,1.6,2.1,1.6C84.7,27.2,85.8,26.3,85.9,24.9L85.9,24.9z"/>
	<path class="st1" d="M91.8,11.5h3.8v18.1h-3.8V11.5z"/>
	<path class="st1" d="M98.4,11.5h3.8v18.1h-3.8V11.5z"/>
	<path class="st1" d="M104,23L104,23c-0.2-3.7,2.7-6.8,6.3-7c0.1,0,0.2,0,0.3,0c4.4,0,6.5,3.5,6.5,7.2c0,0.3,0,0.7-0.1,1h-9.2
		c0.2,1.6,1.7,2.7,3.3,2.6c1.2,0,2.4-0.5,3.2-1.4l2.2,1.9c-2.5,3-6.9,3.4-9.9,0.9C105,27,104.1,25.1,104,23L104,23z M113.4,21.9
		c-0.2-1.7-1.2-2.8-2.8-2.8s-2.6,1.1-2.9,2.8H113.4z"/>
	<path class="st1" d="M118.9,16.3h3.8v2.7c0.8-1.8,2-3,4.2-2.9v4h-0.2c-2.5,0-4.1,1.5-4.1,4.7v4.9h-3.8V16.3z"/>
	<path class="st1" d="M138,16.3h3.9l-5.2,13.6c-1,2.7-2.1,3.7-4.4,3.7c-1.2,0-2.4-0.3-3.4-0.9l1.3-2.7c0.5,0.3,1,0.5,1.6,0.5
		c0.6,0.1,1.1-0.3,1.3-0.9l-5.2-13.4h4l3,9.1L138,16.3z"/>
</g>
<line class="st0" x1="142.4" y1="1.5" x2="21.6" y2="1.5"/>
<line class="st0" x1="142.4" y1="42.2" x2="21.9" y2="42.2"/>
</svg>
