<?xml version="1.0" encoding="utf-8"?>
<!-- Generator: Adobe Illustrator 26.3.1, SVG Export Plug-In . SVG Version: 6.00 Build 0)  -->
<svg version="1.1" id="Layer_1" xmlns="http://www.w3.org/2000/svg" xmlns:xlink="http://www.w3.org/1999/xlink" x="0px" y="0px"
	 viewBox="0 0 822 111.4" style="enable-background:new 0 0 822 111.4;" xml:space="preserve">
<style type="text/css">
	.st0{fill:#272525;}
</style>
<g id="LogoText">
	<path id="Low-a" class="st0" d="M766.2,103.7c-4.4,0-8.3-0.7-11.7-2.2c-3.4-1.5-6-3.7-7.9-6.6c-1.9-3-2.9-6.7-2.9-11.3
		c0-3.8,0.6-7,1.9-9.7c1.3-2.7,3.1-4.9,5.4-6.6c2.3-1.7,5-3,8.1-3.9c3.1-0.9,6.4-1.5,10-1.8c3.9-0.3,7-0.7,9.3-1.1
		c2.4-0.4,4.1-1,5.1-1.8c1-0.8,1.6-1.9,1.6-3.2v-0.2c0-1.8-0.7-3.2-2.1-4.1c-1.4-1-3.1-1.4-5.3-1.4c-2.4,0-4.3,0.5-5.8,1.6
		c-1.5,1-2.4,2.6-2.7,4.7h-22.9c0.3-4.2,1.6-8.1,4-11.6c2.4-3.6,5.9-6.4,10.5-8.5c4.6-2.1,10.3-3.2,17.2-3.2c4.9,0,9.4,0.6,13.3,1.7
		c3.9,1.2,7.3,2.8,10,4.8c2.8,2.1,4.9,4.5,6.3,7.2s2.2,5.7,2.2,8.9v47.3h-23.2v-9.7h-0.5c-1.4,2.6-3.1,4.7-5,6.3
		c-2,1.6-4.2,2.7-6.7,3.5C771.9,103.3,769.2,103.7,766.2,103.7z M774.3,88c1.9,0,3.7-0.4,5.3-1.2c1.7-0.8,3-1.9,4.1-3.4
		c1-1.5,1.6-3.3,1.6-5.4v-5.8c-0.7,0.3-1.4,0.5-2.1,0.8c-0.7,0.2-1.5,0.5-2.3,0.7c-0.8,0.2-1.7,0.4-2.6,0.6
		c-0.9,0.2-1.9,0.3-2.9,0.5c-1.9,0.3-3.5,0.8-4.7,1.5c-1.2,0.7-2.1,1.5-2.7,2.5c-0.6,1-0.9,2.1-0.9,3.3c0,1.9,0.7,3.4,2,4.4
		C770.5,87.5,772.2,88,774.3,88z"/>
	<path id="Low-u" class="st0" d="M714.6,72.4V33.5h24.8v69.1h-23.6V89.5h-0.7c-1.5,4.4-4.1,7.9-7.9,10.3c-3.8,2.5-8.2,3.7-13.4,3.7
		c-4.8,0-9.1-1.1-12.7-3.3c-3.6-2.2-6.4-5.3-8.4-9.2c-2-3.9-3-8.4-3-13.4V33.5h24.8v38.9c0,3.4,0.9,6.1,2.6,8.1
		c1.7,2,4.1,2.9,7.3,2.9c2.1,0,3.9-0.4,5.4-1.3c1.5-0.9,2.7-2.1,3.5-3.8C714.2,76.6,714.6,74.7,714.6,72.4z"/>
	<path class="st0" d="M666,101.4c-1.1,0.3-2.7,0.7-4.7,1.2c-2.1,0.5-4.5,0.8-7.3,0.9c-5.7,0.3-10.5-0.3-14.3-1.8
		c-3.9-1.5-6.8-3.8-8.7-7c-2-3.2-2.9-7.2-2.8-12V54.8l-10.4,0h-1.2c-2.4,0-6.8,0.1-8.1,0.1c-2.4,0-4.6,0.5-6.5,1.6
		c-1.9,1.1-3.5,2.6-4.6,4.6c-1.1,2-1.5,4.9-1.5,7.5v34h-24.8V33.5h24.1v13.1h0.7c1.3-4.9,3.3-7.4,6-9.7c2.8-2.2,6-3.4,9.7-3.4
		c1.1,0,2.1,0,3.2,0c1.3,0,0.6-0.1,2.3-0.1l0.8,0H628V16.9h24.8v16.5h11.9v21.3h-11.9v25.6c0,1,0.2,1.8,0.5,2.4
		c0.3,0.7,0.8,1.1,1.5,1.4c0.7,0.3,1.6,0.5,2.6,0.5c0.8,0,1.6-0.1,2.6-0.3c1-0.2,1.7-0.3,2.2-0.5L666,101.4z"/>
	<path id="Low-i" class="st0" d="M538.5,102.6V33.5h24.8v69.1H538.5z M550.9,26.3c-3.4,0-6.2-1.1-8.6-3.3s-3.6-4.9-3.6-8
		s1.2-5.8,3.6-8c2.4-2.2,5.3-3.3,8.6-3.3c3.4,0,6.3,1.1,8.7,3.3c2.4,2.2,3.6,4.9,3.6,8s-1.2,5.8-3.6,8
		C557.2,25.2,554.3,26.3,550.9,26.3z"/>
	<path id="Cap-V" class="st0" d="M467.6,10.5l18.9,65h0.7l18.9-65h28.3l-30.4,92.1h-34.2l-30.4-92.1H467.6z"/>
	<path id="Cap-G" class="st0" d="M389.3,40.9c-0.4-1.6-1-3-1.8-4.2s-1.9-2.2-3.1-3.1c-1.2-0.9-2.7-1.5-4.3-1.9
		c-1.6-0.4-3.4-0.7-5.4-0.7c-4.2,0-7.8,1-10.7,3c-3,2-5.2,4.9-6.7,8.7c-1.5,3.8-2.3,8.3-2.3,13.7c0,5.4,0.7,10,2.2,13.9
		c1.5,3.8,3.7,6.8,6.6,8.8s6.5,3.1,10.8,3.1c3.8,0,7-0.6,9.5-1.7c2.5-1.1,4.4-2.7,5.7-4.7c1.3-2,1.9-4.4,1.9-7.2l4.3,0.4h-21.1V51.1
		h40.9v12.8c0,8.4-1.8,15.6-5.3,21.5c-3.6,6-8.4,10.5-14.7,13.7c-6.2,3.2-13.4,4.7-21.4,4.7c-9,0-16.8-1.9-23.6-5.7
		c-6.8-3.8-12.1-9.2-15.9-16.3c-3.8-7-5.7-15.4-5.7-25.2c0-7.6,1.2-14.4,3.5-20.2c2.3-5.9,5.6-10.9,9.7-14.9
		c4.1-4.1,8.9-7.1,14.4-9.2c5.4-2.1,11.2-3.1,17.5-3.1c5.5,0,10.5,0.8,15.2,2.3c4.7,1.5,8.8,3.7,12.5,6.6s6.5,6.2,8.8,10.1
		c2.2,3.9,3.6,8.1,4,12.7H389.3z"/>
	<path id="Cap-S" class="st0" d="M299.8,39.3c-0.2-3-1.4-5.3-3.4-7c-2-1.7-5-2.5-9.1-2.5c-2.6,0-4.7,0.3-6.3,0.9s-2.8,1.4-3.6,2.5
		c-0.8,1.1-1.2,2.2-1.2,3.6c-0.1,1.1,0.1,2.1,0.6,3c0.5,0.9,1.2,1.7,2.2,2.4c1,0.7,2.3,1.3,3.9,1.9c1.6,0.6,3.5,1.1,5.7,1.5l7.6,1.6
		c5.1,1.1,9.5,2.5,13.1,4.3c3.6,1.8,6.6,3.8,8.9,6.2c2.3,2.4,4,5.1,5.1,8c1.1,3,1.7,6.2,1.7,9.7c0,6.1-1.5,11.2-4.5,15.4
		c-3,4.2-7.3,7.4-12.8,9.6c-5.6,2.2-12.2,3.3-20,3.3c-8,0-15-1.2-20.9-3.6c-6-2.4-10.6-6-13.9-11c-3.3-4.9-4.9-11.3-5-19h23.8
		c0.1,2.8,0.9,5.2,2.1,7.1c1.3,1.9,3,3.4,5.3,4.4c2.3,1,5,1.5,8.2,1.5c2.7,0,4.9-0.3,6.7-1c1.8-0.7,3.2-1.6,4.1-2.7
		c0.9-1.2,1.4-2.5,1.4-4c0-1.4-0.5-2.6-1.4-3.7c-0.9-1.1-2.3-2-4.3-2.9c-2-0.9-4.7-1.7-8.1-2.4l-9.2-2c-8.2-1.8-14.6-4.7-19.3-8.9
		s-7-9.8-7-17c0-5.8,1.5-11,4.7-15.4c3.2-4.4,7.6-7.8,13.2-10.3c5.6-2.5,12.1-3.7,19.4-3.7c7.4,0,13.9,1.2,19.3,3.7
		c5.4,2.5,9.6,6,12.6,10.5c3,4.5,4.4,9.8,4.5,15.8H299.8z"/>
	<path class="st0" d="M219.5,10.5h-34.2l-30.4,92.1h27l5.3-17.6h30.4l5.3,17.6h27L219.5,10.5z M192.9,66.3l9.2-30.4h0.7l9.2,30.4
		H192.9z"/>
</g>
<polygon id="Slash-3" class="st0" points="87.7,102.6 114.6,102.6 144.5,10.8 117.7,10.8 "/>
<polygon id="Slash-2" class="st0" points="48.7,102.6 75.7,102.6 105.5,10.8 78.8,10.8 "/>
<polygon id="Slash-1" class="st0" points="10,102.6 37,102.6 66.9,10.8 40.1,10.8 "/>
</svg>
